HIERARCHY
ROOT root
{
	OFFSET	0	13.1	24.9
	CHANNELS 6  Xposition Yposition Zposition Xrotation Yrotation Zrotation
	JOINT spine_1
	{
		OFFSET	0	9.99999	0
		CHANNELS 3  Xrotation Yrotation Zrotation
		JOINT spine_2
		{
			OFFSET	0	112	-10
			CHANNELS 3  Xrotation Yrotation Zrotation
			JOINT spine_3
			{
				OFFSET	0	206.5	19.3
				CHANNELS 3  Xrotation Yrotation Zrotation
				JOINT spine_4
				{
					OFFSET	0	110.4	14.6
					CHANNELS 3  Xrotation Yrotation Zrotation
					JOINT neck_1
					{
						OFFSET	0	71.8	-50.3
						CHANNELS 3  Xrotation Yrotation Zrotation
						JOINT neck_2
						{
							OFFSET	0	86.2	-25.8
							CHANNELS 3  Xrotation Yrotation Zrotation
							JOINT head_ee
							{
								OFFSET	0	179.8	-8.7
								CHANNELS 3  Xrotation Yrotation Zrotation
								End Site
								{
									OFFSET	1	0	0
								}
							}
						}
					}
					JOINT left_clavicle
					{
						OFFSET	-43.2	22.4	-70.8
						CHANNELS 3  Xrotation Yrotation Zrotation
						JOINT left_shoulder
						{
							OFFSET	-93.9	-5.79999	48.7
							CHANNELS 3  Xrotation Yrotation Zrotation
							JOINT left_elbow
							{
								OFFSET	-291.4	-30.8	15.2
								CHANNELS 3  Xrotation Yrotation Zrotation
								JOINT left_lowarm_twist
								{
									OFFSET	-110.7	-3.89999	13.6
									CHANNELS 3  Xrotation Yrotation Zrotation
									JOINT left_hand
									{
										OFFSET	-110.7	-3.89999	13.6
										CHANNELS 3  Xrotation Yrotation Zrotation
										JOINT left_ee
										{
											OFFSET	-80.8	-5.10001	12.1
											CHANNELS 3  Xrotation Yrotation Zrotation
											End Site
											{
												OFFSET	1	0	0
											}
										}
									}
								}
							}
						}
					}
					JOINT right_clavicle
					{
						OFFSET	43.2	22.4	-70.8
						CHANNELS 3  Xrotation Yrotation Zrotation
						JOINT right_shoulder
						{
							OFFSET	93.9	-5.79999	48.7
							CHANNELS 3  Xrotation Yrotation Zrotation
							JOINT right_elbow
							{
								OFFSET	291.4	-30.8	15.2
								CHANNELS 3  Xrotation Yrotation Zrotation
								JOINT right_lowarm_twist
								{
									OFFSET	110.7	-3.89999	13.6
									CHANNELS 3  Xrotation Yrotation Zrotation
									JOINT right_hand
									{
										OFFSET	110.7	-3.89999	13.6
										CHANNELS 3  Xrotation Yrotation Zrotation
										JOINT right_ee
										{
											OFFSET	80.8	-5.10001	12.1
											CHANNELS 3  Xrotation Yrotation Zrotation
											End Site
											{
												OFFSET	1	0	0
											}
										}
									}
								}
							}
						}
					}
				}
			}
		}
	}
	JOINT left_hip
	{
		OFFSET	-82.8	-127.5	0.300001
		CHANNELS 3  Xrotation Yrotation Zrotation
		JOINT left_knee
		{
			OFFSET	-28.2	-396.7	2.2
			CHANNELS 3  Xrotation Yrotation Zrotation
			JOINT left_ankle
			{
				OFFSET	-11.7	-411.3	35.4
				CHANNELS 3  Xrotation Yrotation Zrotation
				JOINT left_toes
				{
					OFFSET	0	-60	-88.6
					CHANNELS 3  Xrotation Yrotation Zrotation
					JOINT left_foot_ee
					{
						OFFSET	-22.5	-16.5	-42.2
						CHANNELS 3  Xrotation Yrotation Zrotation
						End Site
						{
							OFFSET	1	0	0
						}
					}
				}
			}
		}
	}
	JOINT right_hip
	{
		OFFSET	82.8	-127.5	0.300001
		CHANNELS 3  Xrotation Yrotation Zrotation
		JOINT right_knee
		{
			OFFSET	28.2	-396.7	2.2
			CHANNELS 3  Xrotation Yrotation Zrotation
			JOINT right_ankle
			{
				OFFSET	11.7	-411.3	35.4
				CHANNELS 3  Xrotation Yrotation Zrotation
				JOINT right_toes
				{
					OFFSET	0	-60	-88.6
					CHANNELS 3  Xrotation Yrotation Zrotation
					JOINT right_foot_ee
					{
						OFFSET	22.5	-16.5	-42.2
						CHANNELS 3  Xrotation Yrotation Zrotation
						End Site
						{
							OFFSET	1	0	0
						}
					}
				}
			}
		}
	}
}
MOTION
Frames: 12
Frame Time: 0.02
3384.39 722.926 -1259.25 -24.0077 53.7933 17.7958 6.28677 0.418865 1.7288 6.28838 0.308025 1.75194 6.29578 0.128352 1.77417 6.29162 0.406896 1.73165 -7.66955 18.4715 -0.727404 -7.77426 35.0062 3.35232 -0.0 0.0 -0.0 -2.21708 14.1741 -1.93396 -5.32161 -31.5982 51.7727 6.49311 -72.6953 4.78032 2.53002 0.0822461 -0.312655 0.887635 -7.93952 2.62365 -0.0 0.0 -0.0 2.29831 3.61058 -4.13409 -49.5342 42.5786 -62.891 0.379392 10.6442 -0.035343 42.0869 0.46224 5.2373 -0.0223431 -28.8517 -11.1697 0.0 0.0 0.0 28.3409 2.42214 -6.05063 -0.18928 0.00774754 0.0280137 11.5335 22.3046 -1.6842 -38.7728 0.0 0.0 -0.0 0.0 -0.0 0.240128 10.2922 12.8304 -3.16531 -0.117323 -0.471546 27.476 20.1364 4.03522 -6.94774 0.0 0.0 0.0 0.0 0.0 
3370.66 722.477 -1254.35 -24.1668 54.0852 18.3388 6.45706 0.397302 1.54479 6.45833 0.29821 1.56693 6.46481 0.142074 1.58871 6.4615 0.391168 1.54635 -8.4539 17.848 0.510328 -8.65606 33.0929 4.67462 -0.0 0.0 -0.0 -2.17373 14.3067 -1.84058 -4.98361 -32.2166 52.7063 5.94614 -71.217 4.26021 2.29297 0.075128 -0.283213 0.794066 -4.85665 3.29505 -0.0 0.0 -0.0 2.05704 3.69177 -3.64786 -48.3616 42.7176 -63.6844 0.384349 10.78 -0.0362642 43.1824 0.525058 5.36258 -0.189996 -29.0331 -10.315 0.0 0.0 0.0 28.0616 2.55201 -6.13521 -1.7465 0.0679615 0.2594 11.6016 20.1139 -1.67838 -38.6274 0.0 0.0 -0.0 0.0 -0.0 0.862073 10.2661 12.7647 -5.89307 -0.197388 -0.882475 27.2333 13.8894 3.82174 -5.8805 0.0 0.0 0.0 0.0 0.0 
3361.09 726.225 -1245.98 -24.1264 54.6227 18.9354 6.34531 0.282827 1.3398 6.34629 0.197006 1.35508 6.34971 0.0594948 1.36803 6.34721 0.274784 1.34148 -10.4648 17.6362 0.433117 -10.9345 33.0211 5.19687 -0.0 0.0 -0.0 -2.19871 13.2549 -2.06138 -5.66578 -32.0584 53.494 5.71418 -70.5135 4.04107 1.66518 0.0556872 -0.20538 0.773089 -5.42206 2.91561 -0.0 0.0 -0.0 1.69899 3.61121 -2.94405 -48.2108 42.3969 -63.0704 0.414215 11.5958 -0.0420593 44.6579 0.613445 5.5294 -0.0918447 -28.9314 -10.816 0.0 0.0 0.0 27.4904 3.14766 -5.69501 -1.54574 0.0605525 0.229481 12.5081 19.6742 -1.80094 -38.2385 0.0 0.0 -0.0 0.0 -0.0 1.56169 11.1415 12.9588 -7.8581 -0.242892 -1.18058 26.3595 13.0677 3.69965 -4.67822 0.0 0.0 0.0 0.0 0.0 
3351.53 733.343 -1238.71 -25.0779 54.3559 19.7454 6.29778 0.324321 1.36362 6.29879 0.236901 1.38149 6.30324 0.0954046 1.3984 6.30065 0.315038 1.36579 -10.5082 17.1574 0.933164 -10.9417 31.7914 5.54183 -0.0 0.0 -0.0 -1.91721 13.3831 -1.57487 -5.98019 -32.2228 54.1232 5.47585 -69.7356 3.81693 1.19607 0.0406041 -0.147361 0.591445 -4.15656 2.22268 -0.0 0.0 -0.0 2.05089 4.05578 -3.60373 -46.5821 42.6187 -63.6357 0.360832 10.1345 -0.0319958 45.7323 0.6805 5.64943 -0.0367969 -28.8586 -11.0927 0.0 0.0 0.0 27.1933 4.2549 -4.27903 0.0542034 -0.0022359 -0.00801748 11.0491 21.7884 -1.61237 -38.1353 0.0 0.0 -0.0 0.0 -0.0 3.11183 10.3915 12.914 -9.3779 -0.271056 -1.41209 25.1376 6.33454 3.43391 -6.31571 0.0 0.0 0.0 0.0 0.0 
3342.14 732.28 -1232.85 -25.2384 54.7593 19.7147 6.18471 0.247819 1.37251 6.18574 0.159989 1.38549 6.18837 0.0156635 1.39461 6.18573 0.235699 1.37464 -12.1189 16.68 1.3159 -12.7063 30.8391 6.25035 -0.0 0.0 -0.0 -2.23473 12.9438 -2.17442 -6.07817 -32.6481 55.0454 5.33385 -69.2431 3.68393 1.30013 0.0439912 -0.160221 0.613803 -3.5803 2.61499 -0.0 0.0 -0.0 2.15171 3.68582 -3.83648 -47.2215 43.2082 -62.4313 0.375561 10.5391 -0.0346386 46.8029 0.749556 5.76778 -0.168304 -28.8922 -10.3831 0.0 0.0 0.0 26.5612 4.98395 -3.27878 0.436888 -0.0182364 -0.0645632 11.4919 20.3104 -1.66439 -38.4382 0.0 0.0 -0.0 0.0 -0.0 4.2286 10.6107 12.9342 -10.9745 -0.294018 -1.65599 23.7667 4.76755 3.25198 -6.16732 0.0 0.0 0.0 0.0 0.0 
3336.49 737.159 -1227.28 -25.452 54.7923 20.2057 6.22664 0.212221 1.37384 6.22768 0.124378 1.38456 6.22943 -0.0186734 1.39001 6.22679 0.201066 1.37552 -13.4295 16.7297 1.85651 -14.1594 30.7516 7.17615 -0.0 0.0 -0.0 -1.41981 12.5062 -0.887801 -6.07225 -30.5599 55.2388 4.71255 -66.7886 3.10767 1.05281 0.0359034 -0.129667 0.544437 -2.63397 2.54408 -0.0 0.0 -0.0 2.61362 3.35089 -4.78097 -47.2473 43.6799 -61.541 0.350492 9.84991 -0.0302017 47.6402 0.805097 5.85943 -0.199692 -29.065 -10.2735 0.0 0.0 0.0 26.0986 5.31216 -3.03211 0.923219 -0.0391165 -0.136271 11.3183 18.7022 -1.63071 -38.6614 0.0 0.0 -0.0 0.0 -0.0 4.77851 10.5239 13.5226 -12.278 -0.307718 -1.85551 22.2629 2.30677 3.04647 -6.42148 0.0 0.0 0.0 0.0 0.0 
3324.19 739.157 -1219.92 -26.0256 54.8289 20.7387 6.19398 0.205171 1.33148 6.19496 0.120037 1.34183 6.1966 -0.0193699 1.34705 6.19412 0.193596 1.33321 -14.2325 16.165 1.40579 -15.0174 30.029 6.79346 -0.0 0.0 -0.0 -1.0578 12.4208 -0.296332 -5.75396 -30.992 56.0134 4.14007 -63.9872 2.58705 0.839946 0.0288367 -0.103399 0.464232 -1.49387 2.48112 -0.0 0.0 -0.0 3.06012 3.61634 -5.64795 -47.0455 44.0807 -61.0438 0.35667 10.02 -0.0312675 48.389 0.855905 5.94071 -0.226895 -28.8195 -10.0362 0.0 0.0 0.0 26.4735 5.81901 -2.25515 1.44999 -0.0624195 -0.213743 11.0475 17.7759 -1.58841 -38.7797 0.0 0.0 -0.0 0.0 -0.0 6.09736 10.1837 13.7397 -13.3802 -0.315759 -2.02444 19.9549 -1.37704 2.73883 -6.85916 0.0 0.0 0.0 0.0 0.0 
3305.28 734.751 -1212.46 -26.5575 55.9985 21.2483 6.46526 0.191399 1.36119 6.46628 0.104404 1.37061 6.46748 -0.0314025 1.37422 6.46489 0.186004 1.36194 -11.9136 16.2131 -1.37364 -12.5084 31.6309 3.49398 -0.0 0.0 -0.0 -0.241677 11.5884 0.96256 -7.46465 -30.6607 55.6306 4.01003 -63.2607 2.47054 0.812209 0.0279087 -0.0999775 0.791673 -2.09851 4.42998 -0.0 0.0 -0.0 2.98193 3.56982 -5.49581 -49.9677 43.696 -59.2996 0.435525 12.175 -0.0464482 48.9148 0.892219 5.9974 -0.246778 -28.41 -9.77836 0.0 0.0 0.0 25.4362 6.29516 -0.451249 1.44848 -0.0623511 -0.21352 15.4809 16.0682 -2.17982 -38.7365 0.0 0.0 -0.0 0.0 -0.0 6.37756 10.8048 14.6548 -18.0286 -0.313893 -2.73745 21.0663 -3.70326 2.86681 -6.21906 0.0 0.0 0.0 0.0 0.0 
3290.01 734.7 -1206.29 -26.141 56.0815 20.8255 6.43515 0.309647 1.44396 6.43628 0.217146 1.46073 6.44036 0.0712303 1.47506 6.43745 0.303271 1.44531 -11.8763 16.0436 -1.57505 -12.4556 31.434 3.23442 -0.0 0.0 -0.0 -0.527642 12.2286 0.562963 -7.09175 -32.5918 57.2155 3.55951 -60.4262 2.07322 1.36888 0.0462158 -0.168721 0.850454 -2.88583 4.49914 -0.0 0.0 -0.0 2.92119 3.65514 -5.36869 -48.9399 44.0514 -59.6196 0.473021 13.1879 -0.05468 49.5085 0.93385 6.061 -0.473227 -28.7486 -8.66462 0.0 0.0 0.0 24.2849 6.56423 0.56746 1.52233 -0.065675 -0.224364 17.1035 14.762 -2.38518 -38.94 0.0 0.0 -0.0 0.0 -0.0 6.43702 9.86859 15.7957 -18.4869 -0.310577 -2.80768 19.1751 -5.55377 2.629 -6.7746 0.0 0.0 0.0 0.0 0.0 
3281.02 733.979 -1202.07 -27.2004 55.9565 21.8189 6.61255 0.358426 1.42235 6.61363 0.267202 1.44227 6.61888 0.127442 1.46126 6.61608 0.356597 1.42281 -10.795 15.9647 -2.35846 -11.2381 31.7125 2.11865 -0.0 0.0 -0.0 -0.807494 12.1994 0.0911197 -8.07825 -34.0113 57.1995 3.43116 -59.5157 1.96209 2.23213 0.073281 -0.27566 1.14093 -5.9701 5.17169 -0.0 0.0 -0.0 3.18192 3.91801 -5.86904 -48.9102 44.4212 -59.4097 0.499854 13.9077 -0.0609659 50.0383 0.971553 6.11739 -0.594428 -28.6969 -7.9848 0.0 0.0 0.0 24.0052 6.34383 0.974028 2.17256 -0.0955428 -0.319662 19.9213 13.5008 -2.7378 -38.6011 0.0 0.0 -0.0 0.0 -0.0 7.38664 9.16059 16.2278 -19.9353 -0.296403 -3.02947 19.0636 -7.2225 2.61395 -6.49098 0.0 0.0 0.0 0.0 0.0 
3272.93 733.609 -1198.38 -28.7647 57.1839 23.5 6.72611 0.363417 1.31644 6.72703 0.27892 1.33689 6.73225 0.151914 1.3572 6.72987 0.364333 1.31619 -11.7602 15.9065 -1.08426 -12.3056 30.8533 3.61845 -0.0 0.0 -0.0 -0.992213 12.2277 -0.214015 -8.71066 -35.0646 57.6349 3.3447 -58.8732 1.88782 2.39205 0.0781179 -0.295515 1.49333 -8.14038 6.64117 -0.0 0.0 -0.0 3.31556 3.59938 -6.15754 -48.3566 44.6406 -59.7393 0.549392 15.2246 -0.0734253 51.6696 1.09091 6.28883 -0.723724 -28.8979 -7.36124 0.0 0.0 0.0 23.2967 5.7522 1.75788 3.74785 -0.172381 -0.549112 23.125 10.4324 -3.11657 -38.958 0.0 0.0 -0.0 0.0 -0.0 8.51463 9.1446 16.468 -22.4018 -0.25938 -3.4061 19.4343 -10.2568 2.66418 -6.25658 0.0 0.0 0.0 0.0 0.0 
3263.2 737.349 -1192.77 -29.8109 57.3096 24.6219 6.82111 0.372498 1.29161 6.82199 0.289562 1.31269 6.82736 0.167002 1.33383 6.82508 0.375543 1.29073 -11.527 15.7881 -0.77046 -12.0299 30.4092 3.80702 -0.0 0.0 -0.0 -0.8121 12.5861 0.136026 -9.9113 -35.0082 58.1973 3.15299 -57.3583 1.72502 2.26006 0.0741296 -0.279127 1.78765 -9.97591 7.85106 -0.0 0.0 -0.0 3.59592 3.81302 -6.70222 -47.6819 44.8224 -59.7276 0.497624 13.848 -0.060431 53.1938 1.20683 6.44592 -0.73064 -28.7614 -7.26991 0.0 0.0 0.0 22.9269 5.52245 2.72813 5.03891 -0.240052 -0.735565 22.082 9.19357 -2.98775 -39.8034 0.0 0.0 -0.0 0.0 -0.0 9.88293 8.95124 16.2774 -23.3426 -0.240992 -3.54929 19.0457 -13.6464 2.62825 -5.89642 0.0 0.0 0.0 0.0 0.0 
